<svg width="89" height="17" viewBox="0 0 89 17" fill="none" xmlns="http://www.w3.org/2000/svg">
<path d="M7.77356 2.56269C8.0107 1.99253 8.8184 1.99253 9.05554 2.56269L10.4552 5.9279C10.5552 6.16826 10.7812 6.33249 11.0407 6.3533L14.6737 6.64455C15.2893 6.6939 15.5389 7.46207 15.0699 7.8638L12.3019 10.2349C12.1042 10.4042 12.0179 10.67 12.0783 10.9232L12.9239 14.4684C13.0672 15.069 12.4138 15.5438 11.8868 15.2219L8.77642 13.3221C8.55425 13.1864 8.27484 13.1864 8.05268 13.3221L4.94231 15.2219C4.41532 15.5438 3.76188 15.069 3.90516 14.4684L4.75082 10.9232C4.81123 10.67 4.72489 10.4042 4.52718 10.2349L1.7592 7.86379C1.29022 7.46207 1.53982 6.6939 2.15536 6.64455L5.78838 6.3533C6.04787 6.33249 6.27392 6.16826 6.37389 5.9279L7.77356 2.56269Z" fill="#8A8A8A"/>
<path d="M25.8163 2.56269C26.0534 1.99253 26.8611 1.99253 27.0983 2.56269L28.4979 5.9279C28.5979 6.16826 28.824 6.33249 29.0834 6.3533L32.7165 6.64455C33.332 6.6939 33.5816 7.46207 33.1126 7.8638L30.3446 10.2349C30.1469 10.4042 30.0606 10.67 30.121 10.9232L30.9667 14.4684C31.1099 15.069 30.4565 15.5438 29.9295 15.2219L26.8191 13.3221C26.597 13.1864 26.3176 13.1864 26.0954 13.3221L22.985 15.2219C22.458 15.5438 21.8046 15.069 21.9479 14.4684L22.7935 10.9232C22.854 10.67 22.7676 10.4042 22.5699 10.2349L19.8019 7.86379C19.3329 7.46207 19.5825 6.6939 20.1981 6.64455L23.8311 6.3533C24.0906 6.33249 24.3166 6.16826 24.4166 5.9279L25.8163 2.56269Z" fill="#8A8A8A"/>
<path d="M43.859 2.56269C44.0962 1.99253 44.9038 1.99253 45.141 2.56269L46.5407 5.9279C46.6406 6.16826 46.8667 6.33249 47.1262 6.3533L50.7592 6.64455C51.3747 6.6939 51.6243 7.46207 51.1553 7.8638L48.3874 10.2349C48.1897 10.4042 48.1033 10.67 48.1637 10.9232L49.0094 14.4684C49.1527 15.069 48.4992 15.5438 47.9722 15.2219L44.8619 13.3221C44.6397 13.1864 44.3603 13.1864 44.1381 13.3221L41.0278 15.2219C40.5008 15.5438 39.8473 15.069 39.9906 14.4684L40.8363 10.9232C40.8967 10.67 40.8103 10.4042 40.6126 10.2349L37.8446 7.86379C37.3757 7.46207 37.6253 6.6939 38.2408 6.64455L41.8738 6.3533C42.1333 6.33249 42.3594 6.16826 42.4593 5.9279L43.859 2.56269Z" fill="#8A8A8A"/>
<path d="M61.902 2.56269C62.1391 1.99253 62.9468 1.99253 63.184 2.56269L64.5836 5.9279C64.6836 6.16826 64.9096 6.33249 65.1691 6.3533L68.8022 6.64455C69.4177 6.6939 69.6673 7.46207 69.1983 7.8638L66.4303 10.2349C66.2326 10.4042 66.1463 10.67 66.2067 10.9232L67.0524 14.4684C67.1956 15.069 66.5422 15.5438 66.0152 15.2219L62.9048 13.3221C62.6827 13.1864 62.4033 13.1864 62.1811 13.3221L59.0707 15.2219C58.5437 15.5438 57.8903 15.069 58.0336 14.4684L58.8792 10.9232C58.9396 10.67 58.8533 10.4042 58.6556 10.2349L55.8876 7.86379C55.4186 7.46207 55.6682 6.6939 56.2838 6.64455L59.9168 6.3533C60.1763 6.33249 60.4023 6.16826 60.5023 5.9279L61.902 2.56269Z" fill="#8A8A8A"/>
<path d="M79.9447 2.56269C80.1818 1.99253 80.9895 1.99253 81.2267 2.56269L82.6264 5.9279C82.7263 6.16826 82.9524 6.33249 83.2119 6.3533L86.8449 6.64455C87.4604 6.6939 87.71 7.46207 87.241 7.8638L84.4731 10.2349C84.2754 10.4042 84.189 10.67 84.2494 10.9232L85.0951 14.4684C85.2384 15.069 84.5849 15.5438 84.0579 15.2219L80.9476 13.3221C80.7254 13.1864 80.446 13.1864 80.2238 13.3221L77.1135 15.2219C76.5865 15.5438 75.933 15.069 76.0763 14.4684L76.922 10.9232C76.9824 10.67 76.896 10.4042 76.6983 10.2349L73.9303 7.86379C73.4614 7.46207 73.711 6.6939 74.3265 6.64455L77.9595 6.3533C78.219 6.33249 78.4451 6.16826 78.545 5.9279L79.9447 2.56269Z" fill="#8A8A8A"/>
</svg>
